<svg width="360" height="361" viewBox="0 0 360 361" fill="none" xmlns="http://www.w3.org/2000/svg">
<path d="M264 126.6C264 172.992 226.392 153.6 180 153.6C133.608 153.6 96 172.992 96 126.6C96 80.2081 133.608 42.6 180 42.6C226.392 42.6 264 80.2081 264 126.6Z" fill="#E0921C"/>
<path d="M224 271.6C224 279.873 222.875 288.066 220.689 295.709C218.503 303.353 215.298 310.298 211.259 316.148C207.22 321.998 202.424 326.638 197.147 329.804C191.869 332.97 186.213 334.6 180.5 334.6C174.787 334.6 169.131 332.97 163.853 329.804C158.576 326.638 153.78 321.998 149.741 316.148C145.702 310.298 142.497 303.353 140.311 295.709C138.125 288.066 137 279.873 137 271.6L180.5 271.6H224Z" fill="#494949"/>
<path fill-rule="evenodd" clip-rule="evenodd" d="M147.214 312.124C148.022 310.736 148.873 309.393 149.767 308.101C157.942 296.286 169.029 289.649 180.589 289.649C192.15 289.649 203.237 296.286 211.411 308.101C212.306 309.393 213.157 310.736 213.964 312.124C213.157 313.513 212.306 314.855 211.411 316.148C203.237 327.963 192.15 334.6 180.589 334.6C169.029 334.6 157.942 327.963 149.767 316.148C148.873 314.855 148.022 313.513 147.214 312.124Z" fill="#E96666"/>
<path d="M180 236.6C180 242.772 178.694 248.884 176.156 254.586C173.618 260.288 169.898 265.47 165.209 269.834C160.52 274.198 154.952 277.66 148.826 280.022C142.699 282.384 136.132 283.6 129.5 283.6C122.868 283.6 116.301 282.384 110.174 280.022C104.048 277.66 98.4805 274.198 93.7911 269.834C89.1017 265.47 85.3819 260.288 82.8441 254.586C80.3062 248.884 79 242.772 79 236.6" stroke="black" stroke-width="24" stroke-linecap="round"/>
<path d="M282 236.6C282 242.772 280.681 248.884 278.118 254.586C275.555 260.288 271.798 265.47 267.062 269.834C262.327 274.198 256.704 277.66 250.517 280.022C244.329 282.384 237.697 283.6 231 283.6C224.303 283.6 217.671 282.384 211.483 280.022C205.296 277.66 199.673 274.198 194.938 269.834C190.202 265.47 186.445 260.288 183.882 254.586C181.319 248.884 180 242.772 180 236.6" stroke="black" stroke-width="24" stroke-linecap="round"/>
<circle cx="129" cy="176.6" r="24" fill="black"/>
<circle cx="231" cy="176.6" r="24" fill="black"/>
<path d="M168.9 26.6C162.24 26.6 157.8 31.255 157.8 37.6833V96.1833C157.8 100.602 154.218 104.183 149.8 104.183H143.6C139.182 104.183 135.6 100.602 135.6 96.1833V60.3827C135.6 54.7772 130.104 51.1996 125.392 54.2361C111.513 63.1802 88.1409 84.2016 85.8346 125.234C85.6184 129.081 82.8169 132.465 79.6474 134.656C75.8415 137.287 71.3317 142.292 69.6633 151.631C68.8862 155.98 72.5817 159.6 77 159.6H282.631C287.191 159.6 290.932 155.759 289.957 151.305C287.99 142.315 283.755 137.407 280.192 134.777C277.123 132.511 274.381 129.13 274.17 125.321C271.892 84.2315 248.497 63.1866 234.608 54.2361C229.896 51.1996 224.4 54.7772 224.4 60.3826V96.1833C224.4 100.602 220.818 104.183 216.4 104.183H210.2C205.782 104.183 202.2 100.602 202.2 96.1833V37.6833C202.2 31.255 197.982 26.6 191.1 26.6H168.9Z" fill="#FFB800"/>
</svg>
